<mxfile host="app.diagrams.net" modified="2022-06-23T01:26:40.933Z" agent="5.0 (Windows NT 10.0; Win64; x64) AppleWebKit/537.36 (KHTML, like Gecko) Chrome/102.0.0.0 Safari/537.36" etag="qScK2pEl0Kao8k6iaAWM" version="20.0.1" type="github">
  <diagram id="63rjZUJjJ5vEafGOQFyQ" name="Page-1">
    <mxGraphModel dx="2500" dy="896" grid="1" gridSize="10" guides="1" tooltips="1" connect="1" arrows="1" fold="1" page="1" pageScale="1" pageWidth="827" pageHeight="1169" math="0" shadow="0">
      <root>
        <mxCell id="0" />
        <mxCell id="1" parent="0" />
        <mxCell id="9a1caLbYIYb35AZYHX3a-10" value="" style="edgeStyle=orthogonalEdgeStyle;rounded=0;orthogonalLoop=1;jettySize=auto;html=1;" edge="1" parent="1" source="9a1caLbYIYb35AZYHX3a-1" target="9a1caLbYIYb35AZYHX3a-9">
          <mxGeometry relative="1" as="geometry" />
        </mxCell>
        <mxCell id="9a1caLbYIYb35AZYHX3a-1" value="7点开始&lt;br&gt;打博望" style="rounded=0;whiteSpace=wrap;html=1;" vertex="1" parent="1">
          <mxGeometry x="140" y="80" width="60" height="70" as="geometry" />
        </mxCell>
        <mxCell id="9a1caLbYIYb35AZYHX3a-6" value="" style="endArrow=none;html=1;rounded=0;" edge="1" parent="1">
          <mxGeometry width="50" height="50" relative="1" as="geometry">
            <mxPoint x="70" y="370" as="sourcePoint" />
            <mxPoint x="70" y="60" as="targetPoint" />
            <Array as="points">
              <mxPoint x="70" y="160" />
            </Array>
          </mxGeometry>
        </mxCell>
        <mxCell id="9a1caLbYIYb35AZYHX3a-7" value="7点打博望" style="text;strokeColor=none;fillColor=none;align=left;verticalAlign=middle;spacingLeft=4;spacingRight=4;overflow=hidden;points=[[0,0.5],[1,0.5]];portConstraint=eastwest;rotatable=0;" vertex="1" parent="1">
          <mxGeometry y="50" width="80" height="30" as="geometry" />
        </mxCell>
        <mxCell id="9a1caLbYIYb35AZYHX3a-8" value="8点打完博望" style="text;strokeColor=none;fillColor=none;align=left;verticalAlign=middle;spacingLeft=4;spacingRight=4;overflow=hidden;points=[[0,0.5],[1,0.5]];portConstraint=eastwest;rotatable=0;" vertex="1" parent="1">
          <mxGeometry x="-10" y="347.5" width="80" height="30" as="geometry" />
        </mxCell>
        <mxCell id="9a1caLbYIYb35AZYHX3a-12" value="" style="edgeStyle=orthogonalEdgeStyle;rounded=0;orthogonalLoop=1;jettySize=auto;html=1;" edge="1" parent="1" source="9a1caLbYIYb35AZYHX3a-9" target="9a1caLbYIYb35AZYHX3a-11">
          <mxGeometry relative="1" as="geometry" />
        </mxCell>
        <mxCell id="9a1caLbYIYb35AZYHX3a-9" value="主力立马回去补兵再回来" style="whiteSpace=wrap;html=1;rounded=0;" vertex="1" parent="1">
          <mxGeometry x="130" y="200" width="80" height="45" as="geometry" />
        </mxCell>
        <mxCell id="9a1caLbYIYb35AZYHX3a-14" value="" style="edgeStyle=orthogonalEdgeStyle;rounded=0;orthogonalLoop=1;jettySize=auto;html=1;" edge="1" parent="1" source="9a1caLbYIYb35AZYHX3a-11" target="9a1caLbYIYb35AZYHX3a-13">
          <mxGeometry relative="1" as="geometry" />
        </mxCell>
        <mxCell id="9a1caLbYIYb35AZYHX3a-15" value="博望是我们的" style="edgeLabel;html=1;align=center;verticalAlign=middle;resizable=0;points=[];" vertex="1" connectable="0" parent="9a1caLbYIYb35AZYHX3a-14">
          <mxGeometry x="-0.2625" y="1" relative="1" as="geometry">
            <mxPoint as="offset" />
          </mxGeometry>
        </mxCell>
        <mxCell id="9a1caLbYIYb35AZYHX3a-17" value="" style="edgeStyle=orthogonalEdgeStyle;rounded=0;orthogonalLoop=1;jettySize=auto;html=1;" edge="1" parent="1" source="9a1caLbYIYb35AZYHX3a-11" target="9a1caLbYIYb35AZYHX3a-16">
          <mxGeometry relative="1" as="geometry" />
        </mxCell>
        <mxCell id="9a1caLbYIYb35AZYHX3a-11" value="8点打完" style="whiteSpace=wrap;html=1;rounded=0;" vertex="1" parent="1">
          <mxGeometry x="110" y="317.5" width="120" height="60" as="geometry" />
        </mxCell>
        <mxCell id="9a1caLbYIYb35AZYHX3a-20" value="" style="edgeStyle=orthogonalEdgeStyle;rounded=0;orthogonalLoop=1;jettySize=auto;html=1;" edge="1" parent="1" source="9a1caLbYIYb35AZYHX3a-13" target="9a1caLbYIYb35AZYHX3a-19">
          <mxGeometry relative="1" as="geometry" />
        </mxCell>
        <mxCell id="9a1caLbYIYb35AZYHX3a-22" style="edgeStyle=orthogonalEdgeStyle;rounded=0;orthogonalLoop=1;jettySize=auto;html=1;entryX=0.5;entryY=0;entryDx=0;entryDy=0;" edge="1" parent="1" source="9a1caLbYIYb35AZYHX3a-13" target="9a1caLbYIYb35AZYHX3a-21">
          <mxGeometry relative="1" as="geometry">
            <Array as="points">
              <mxPoint x="170" y="560" />
              <mxPoint x="20" y="560" />
            </Array>
          </mxGeometry>
        </mxCell>
        <mxCell id="9a1caLbYIYb35AZYHX3a-24" style="edgeStyle=orthogonalEdgeStyle;rounded=0;orthogonalLoop=1;jettySize=auto;html=1;entryX=0.5;entryY=0;entryDx=0;entryDy=0;" edge="1" parent="1" source="9a1caLbYIYb35AZYHX3a-13" target="9a1caLbYIYb35AZYHX3a-23">
          <mxGeometry relative="1" as="geometry">
            <Array as="points">
              <mxPoint x="170" y="560" />
              <mxPoint x="360" y="560" />
            </Array>
          </mxGeometry>
        </mxCell>
        <mxCell id="9a1caLbYIYb35AZYHX3a-13" value="司隶行动" style="whiteSpace=wrap;html=1;rounded=0;" vertex="1" parent="1">
          <mxGeometry x="110" y="457.5" width="120" height="60" as="geometry" />
        </mxCell>
        <mxCell id="9a1caLbYIYb35AZYHX3a-18" style="edgeStyle=orthogonalEdgeStyle;rounded=0;orthogonalLoop=1;jettySize=auto;html=1;entryX=1;entryY=0.5;entryDx=0;entryDy=0;" edge="1" parent="1" source="9a1caLbYIYb35AZYHX3a-16" target="9a1caLbYIYb35AZYHX3a-13">
          <mxGeometry relative="1" as="geometry">
            <Array as="points">
              <mxPoint x="370" y="488" />
            </Array>
          </mxGeometry>
        </mxCell>
        <mxCell id="9a1caLbYIYb35AZYHX3a-16" value="迅速起链接地" style="whiteSpace=wrap;html=1;rounded=0;" vertex="1" parent="1">
          <mxGeometry x="310" y="317.5" width="120" height="60" as="geometry" />
        </mxCell>
        <mxCell id="9a1caLbYIYb35AZYHX3a-19" value="铺路组启动" style="whiteSpace=wrap;html=1;rounded=0;" vertex="1" parent="1">
          <mxGeometry x="110" y="597.5" width="120" height="60" as="geometry" />
        </mxCell>
        <mxCell id="9a1caLbYIYb35AZYHX3a-21" value="斯巴达探明马腾动向(有小内不用这一步)" style="whiteSpace=wrap;html=1;rounded=0;" vertex="1" parent="1">
          <mxGeometry x="-40" y="597.5" width="120" height="60" as="geometry" />
        </mxCell>
        <mxCell id="9a1caLbYIYb35AZYHX3a-26" value="" style="edgeStyle=orthogonalEdgeStyle;rounded=0;orthogonalLoop=1;jettySize=auto;html=1;" edge="1" parent="1" source="9a1caLbYIYb35AZYHX3a-23" target="9a1caLbYIYb35AZYHX3a-25">
          <mxGeometry relative="1" as="geometry" />
        </mxCell>
        <mxCell id="9a1caLbYIYb35AZYHX3a-28" style="edgeStyle=orthogonalEdgeStyle;rounded=0;orthogonalLoop=1;jettySize=auto;html=1;entryX=0.5;entryY=0;entryDx=0;entryDy=0;" edge="1" parent="1" source="9a1caLbYIYb35AZYHX3a-23" target="9a1caLbYIYb35AZYHX3a-27">
          <mxGeometry relative="1" as="geometry" />
        </mxCell>
        <mxCell id="9a1caLbYIYb35AZYHX3a-23" value="主力掩护铺路组" style="whiteSpace=wrap;html=1;rounded=0;" vertex="1" parent="1">
          <mxGeometry x="300" y="597.5" width="120" height="60" as="geometry" />
        </mxCell>
        <mxCell id="9a1caLbYIYb35AZYHX3a-25" value="主力迁城" style="whiteSpace=wrap;html=1;rounded=0;" vertex="1" parent="1">
          <mxGeometry x="210" y="737.5" width="120" height="60" as="geometry" />
        </mxCell>
        <mxCell id="9a1caLbYIYb35AZYHX3a-27" value="防御马腾且主动远射妨碍马腾铺路" style="whiteSpace=wrap;html=1;rounded=0;" vertex="1" parent="1">
          <mxGeometry x="414" y="737.5" width="120" height="60" as="geometry" />
        </mxCell>
      </root>
    </mxGraphModel>
  </diagram>
</mxfile>
